<mxfile host="app.diagrams.net" modified="2023-12-21T02:20:42.847Z" agent="Mozilla/5.0 (Windows NT 10.0; Win64; x64) AppleWebKit/537.36 (KHTML, like Gecko) Chrome/120.0.0.0 Safari/537.36" etag="tcKyVY5qatCPgpim91_C" version="22.1.11" type="github">
  <diagram name="PÃ¡gina-1" id="UmTfOm8e8M8Sdv7kFdEf">
    <mxGraphModel dx="2199" dy="786" grid="1" gridSize="10" guides="1" tooltips="1" connect="1" arrows="1" fold="1" page="1" pageScale="1" pageWidth="827" pageHeight="1169" math="0" shadow="0">
      <root>
        <mxCell id="0" />
        <mxCell id="1" parent="0" />
        <mxCell id="8XfUyq8KKlmdykH457QI-1" value="Empleados" style="whiteSpace=wrap;html=1;align=center;" vertex="1" parent="1">
          <mxGeometry x="120" y="630" width="125" height="50" as="geometry" />
        </mxCell>
        <mxCell id="8XfUyq8KKlmdykH457QI-2" value="Revistas" style="whiteSpace=wrap;html=1;align=center;" vertex="1" parent="1">
          <mxGeometry x="600" y="361" width="120" height="48" as="geometry" />
        </mxCell>
        <mxCell id="8XfUyq8KKlmdykH457QI-3" value="Sucursales" style="whiteSpace=wrap;html=1;align=center;" vertex="1" parent="1">
          <mxGeometry x="120" y="360" width="125" height="50" as="geometry" />
        </mxCell>
        <mxCell id="8XfUyq8KKlmdykH457QI-15" style="edgeStyle=orthogonalEdgeStyle;rounded=0;orthogonalLoop=1;jettySize=auto;html=1;exitX=1;exitY=1;exitDx=0;exitDy=0;entryX=0;entryY=0.25;entryDx=0;entryDy=0;endArrow=none;endFill=0;" edge="1" parent="1" source="8XfUyq8KKlmdykH457QI-4" target="8XfUyq8KKlmdykH457QI-3">
          <mxGeometry relative="1" as="geometry" />
        </mxCell>
        <mxCell id="8XfUyq8KKlmdykH457QI-4" value="Codigo de sucursal" style="ellipse;whiteSpace=wrap;html=1;align=center;" vertex="1" parent="1">
          <mxGeometry x="-62.5" y="270" width="100" height="40" as="geometry" />
        </mxCell>
        <mxCell id="8XfUyq8KKlmdykH457QI-14" style="edgeStyle=orthogonalEdgeStyle;rounded=0;orthogonalLoop=1;jettySize=auto;html=1;entryX=0;entryY=0.5;entryDx=0;entryDy=0;endArrow=none;endFill=0;" edge="1" parent="1" source="8XfUyq8KKlmdykH457QI-5" target="8XfUyq8KKlmdykH457QI-3">
          <mxGeometry relative="1" as="geometry" />
        </mxCell>
        <mxCell id="8XfUyq8KKlmdykH457QI-5" value="Telefono" style="ellipse;whiteSpace=wrap;html=1;align=center;" vertex="1" parent="1">
          <mxGeometry x="-62" y="372.5" width="62.5" height="25" as="geometry" />
        </mxCell>
        <mxCell id="8XfUyq8KKlmdykH457QI-16" style="edgeStyle=orthogonalEdgeStyle;rounded=0;orthogonalLoop=1;jettySize=auto;html=1;entryX=0.25;entryY=0;entryDx=0;entryDy=0;endArrow=none;endFill=0;" edge="1" parent="1" source="8XfUyq8KKlmdykH457QI-6" target="8XfUyq8KKlmdykH457QI-3">
          <mxGeometry relative="1" as="geometry" />
        </mxCell>
        <mxCell id="8XfUyq8KKlmdykH457QI-6" value="Domicilio" style="ellipse;whiteSpace=wrap;html=1;align=center;" vertex="1" parent="1">
          <mxGeometry x="80" y="230" width="75" height="30" as="geometry" />
        </mxCell>
        <mxCell id="8XfUyq8KKlmdykH457QI-18" value="" style="edgeStyle=orthogonalEdgeStyle;rounded=0;orthogonalLoop=1;jettySize=auto;html=1;endArrow=none;endFill=0;" edge="1" parent="1" source="8XfUyq8KKlmdykH457QI-8" target="8XfUyq8KKlmdykH457QI-1">
          <mxGeometry relative="1" as="geometry" />
        </mxCell>
        <mxCell id="8XfUyq8KKlmdykH457QI-8" value="Telefono" style="ellipse;whiteSpace=wrap;html=1;align=center;" vertex="1" parent="1">
          <mxGeometry x="-50" y="640" width="75" height="30" as="geometry" />
        </mxCell>
        <mxCell id="8XfUyq8KKlmdykH457QI-20" style="edgeStyle=orthogonalEdgeStyle;rounded=0;orthogonalLoop=1;jettySize=auto;html=1;exitX=1;exitY=0.5;exitDx=0;exitDy=0;entryX=0;entryY=1;entryDx=0;entryDy=0;endArrow=none;endFill=0;" edge="1" parent="1" source="8XfUyq8KKlmdykH457QI-9" target="8XfUyq8KKlmdykH457QI-1">
          <mxGeometry relative="1" as="geometry" />
        </mxCell>
        <mxCell id="8XfUyq8KKlmdykH457QI-9" value="NIF" style="ellipse;whiteSpace=wrap;html=1;align=center;" vertex="1" parent="1">
          <mxGeometry x="-30" y="790" width="75" height="30" as="geometry" />
        </mxCell>
        <mxCell id="8XfUyq8KKlmdykH457QI-21" style="edgeStyle=orthogonalEdgeStyle;rounded=0;orthogonalLoop=1;jettySize=auto;html=1;entryX=0.25;entryY=1;entryDx=0;entryDy=0;endArrow=none;endFill=0;" edge="1" parent="1" source="8XfUyq8KKlmdykH457QI-10" target="8XfUyq8KKlmdykH457QI-1">
          <mxGeometry relative="1" as="geometry">
            <Array as="points">
              <mxPoint x="151" y="855" />
            </Array>
          </mxGeometry>
        </mxCell>
        <mxCell id="8XfUyq8KKlmdykH457QI-10" value="Apellidos" style="ellipse;whiteSpace=wrap;html=1;align=center;" vertex="1" parent="1">
          <mxGeometry x="50" y="840" width="75" height="30" as="geometry" />
        </mxCell>
        <mxCell id="8XfUyq8KKlmdykH457QI-19" style="edgeStyle=orthogonalEdgeStyle;rounded=0;orthogonalLoop=1;jettySize=auto;html=1;entryX=0;entryY=0.75;entryDx=0;entryDy=0;endArrow=none;endFill=0;" edge="1" parent="1" source="8XfUyq8KKlmdykH457QI-11" target="8XfUyq8KKlmdykH457QI-1">
          <mxGeometry relative="1" as="geometry" />
        </mxCell>
        <mxCell id="8XfUyq8KKlmdykH457QI-11" value="Nombre" style="ellipse;whiteSpace=wrap;html=1;align=center;" vertex="1" parent="1">
          <mxGeometry x="-30" y="710" width="75" height="30" as="geometry" />
        </mxCell>
        <mxCell id="8XfUyq8KKlmdykH457QI-22" style="edgeStyle=orthogonalEdgeStyle;rounded=0;orthogonalLoop=1;jettySize=auto;html=1;entryX=0.5;entryY=1;entryDx=0;entryDy=0;endArrow=none;endFill=0;" edge="1" parent="1" source="8XfUyq8KKlmdykH457QI-12" target="8XfUyq8KKlmdykH457QI-1">
          <mxGeometry relative="1" as="geometry" />
        </mxCell>
        <mxCell id="8XfUyq8KKlmdykH457QI-12" value="Emp Unico" style="ellipse;whiteSpace=wrap;html=1;align=center;fontStyle=4;" vertex="1" parent="1">
          <mxGeometry x="170" y="810" width="75" height="30" as="geometry" />
        </mxCell>
        <mxCell id="8XfUyq8KKlmdykH457QI-26" value="" style="edgeStyle=orthogonalEdgeStyle;rounded=0;orthogonalLoop=1;jettySize=auto;html=1;endArrow=none;endFill=0;" edge="1" parent="1" source="8XfUyq8KKlmdykH457QI-23" target="8XfUyq8KKlmdykH457QI-1">
          <mxGeometry relative="1" as="geometry" />
        </mxCell>
        <mxCell id="8XfUyq8KKlmdykH457QI-27" value="" style="edgeStyle=orthogonalEdgeStyle;rounded=0;orthogonalLoop=1;jettySize=auto;html=1;endArrow=none;endFill=0;" edge="1" parent="1" source="8XfUyq8KKlmdykH457QI-23" target="8XfUyq8KKlmdykH457QI-3">
          <mxGeometry relative="1" as="geometry" />
        </mxCell>
        <mxCell id="8XfUyq8KKlmdykH457QI-23" value="Tiene" style="shape=rhombus;perimeter=rhombusPerimeter;whiteSpace=wrap;html=1;align=center;" vertex="1" parent="1">
          <mxGeometry x="122.5" y="500" width="120" height="60" as="geometry" />
        </mxCell>
        <mxCell id="8XfUyq8KKlmdykH457QI-29" value="" style="edgeStyle=orthogonalEdgeStyle;rounded=0;orthogonalLoop=1;jettySize=auto;html=1;endArrow=none;endFill=0;" edge="1" parent="1" source="8XfUyq8KKlmdykH457QI-28" target="8XfUyq8KKlmdykH457QI-3">
          <mxGeometry relative="1" as="geometry" />
        </mxCell>
        <mxCell id="8XfUyq8KKlmdykH457QI-30" style="edgeStyle=orthogonalEdgeStyle;rounded=0;orthogonalLoop=1;jettySize=auto;html=1;entryX=0;entryY=0.5;entryDx=0;entryDy=0;endArrow=none;endFill=0;" edge="1" parent="1" source="8XfUyq8KKlmdykH457QI-28" target="8XfUyq8KKlmdykH457QI-2">
          <mxGeometry relative="1" as="geometry" />
        </mxCell>
        <mxCell id="8XfUyq8KKlmdykH457QI-28" value="Tene" style="shape=rhombus;perimeter=rhombusPerimeter;whiteSpace=wrap;html=1;align=center;" vertex="1" parent="1">
          <mxGeometry x="340" y="355" width="120" height="60" as="geometry" />
        </mxCell>
        <mxCell id="8XfUyq8KKlmdykH457QI-39" style="edgeStyle=orthogonalEdgeStyle;rounded=0;orthogonalLoop=1;jettySize=auto;html=1;exitX=0;exitY=0;exitDx=0;exitDy=0;entryX=1;entryY=1;entryDx=0;entryDy=0;endArrow=none;endFill=0;" edge="1" parent="1" source="8XfUyq8KKlmdykH457QI-31" target="8XfUyq8KKlmdykH457QI-2">
          <mxGeometry relative="1" as="geometry" />
        </mxCell>
        <mxCell id="8XfUyq8KKlmdykH457QI-31" value="Tipo" style="ellipse;whiteSpace=wrap;html=1;align=center;" vertex="1" parent="1">
          <mxGeometry x="780" y="490" width="100" height="40" as="geometry" />
        </mxCell>
        <mxCell id="8XfUyq8KKlmdykH457QI-38" value="" style="edgeStyle=orthogonalEdgeStyle;rounded=0;orthogonalLoop=1;jettySize=auto;html=1;endArrow=none;endFill=0;" edge="1" parent="1" source="8XfUyq8KKlmdykH457QI-32" target="8XfUyq8KKlmdykH457QI-2">
          <mxGeometry relative="1" as="geometry" />
        </mxCell>
        <mxCell id="8XfUyq8KKlmdykH457QI-32" value="Periodicidad&amp;nbsp;" style="ellipse;whiteSpace=wrap;html=1;align=center;" vertex="1" parent="1">
          <mxGeometry x="610" y="510" width="100" height="40" as="geometry" />
        </mxCell>
        <mxCell id="8XfUyq8KKlmdykH457QI-37" value="" style="edgeStyle=orthogonalEdgeStyle;rounded=0;orthogonalLoop=1;jettySize=auto;html=1;endArrow=none;endFill=0;" edge="1" parent="1" source="8XfUyq8KKlmdykH457QI-33" target="8XfUyq8KKlmdykH457QI-2">
          <mxGeometry relative="1" as="geometry" />
        </mxCell>
        <mxCell id="8XfUyq8KKlmdykH457QI-33" value="No. Registro" style="ellipse;whiteSpace=wrap;html=1;align=center;" vertex="1" parent="1">
          <mxGeometry x="810" y="365" width="100" height="40" as="geometry" />
        </mxCell>
        <mxCell id="8XfUyq8KKlmdykH457QI-35" value="" style="edgeStyle=orthogonalEdgeStyle;rounded=0;orthogonalLoop=1;jettySize=auto;html=1;endArrow=none;endFill=0;" edge="1" parent="1" source="8XfUyq8KKlmdykH457QI-34" target="8XfUyq8KKlmdykH457QI-2">
          <mxGeometry relative="1" as="geometry" />
        </mxCell>
        <mxCell id="8XfUyq8KKlmdykH457QI-34" value="Titulo" style="ellipse;whiteSpace=wrap;html=1;align=center;" vertex="1" parent="1">
          <mxGeometry x="610" y="240" width="100" height="40" as="geometry" />
        </mxCell>
        <mxCell id="8XfUyq8KKlmdykH457QI-44" value="1" style="text;strokeColor=none;fillColor=none;spacingLeft=4;spacingRight=4;overflow=hidden;rotatable=0;points=[[0,0.5],[1,0.5]];portConstraint=eastwest;fontSize=12;whiteSpace=wrap;html=1;" vertex="1" parent="1">
          <mxGeometry x="580" y="361" width="40" height="30" as="geometry" />
        </mxCell>
        <mxCell id="8XfUyq8KKlmdykH457QI-45" value="N" style="text;strokeColor=none;fillColor=none;spacingLeft=4;spacingRight=4;overflow=hidden;rotatable=0;points=[[0,0.5],[1,0.5]];portConstraint=eastwest;fontSize=12;whiteSpace=wrap;html=1;" vertex="1" parent="1">
          <mxGeometry x="457" y="363" width="40" height="30" as="geometry" />
        </mxCell>
        <mxCell id="8XfUyq8KKlmdykH457QI-46" value="N" style="text;strokeColor=none;fillColor=none;spacingLeft=4;spacingRight=4;overflow=hidden;rotatable=0;points=[[0,0.5],[1,0.5]];portConstraint=eastwest;fontSize=12;whiteSpace=wrap;html=1;" vertex="1" parent="1">
          <mxGeometry x="245" y="363" width="40" height="30" as="geometry" />
        </mxCell>
        <mxCell id="8XfUyq8KKlmdykH457QI-47" value="N" style="text;strokeColor=none;fillColor=none;spacingLeft=4;spacingRight=4;overflow=hidden;rotatable=0;points=[[0,0.5],[1,0.5]];portConstraint=eastwest;fontSize=12;whiteSpace=wrap;html=1;" vertex="1" parent="1">
          <mxGeometry x="325" y="363" width="40" height="30" as="geometry" />
        </mxCell>
        <mxCell id="8XfUyq8KKlmdykH457QI-49" value="N:M" style="text;strokeColor=none;fillColor=none;spacingLeft=4;spacingRight=4;overflow=hidden;rotatable=0;points=[[0,0.5],[1,0.5]];portConstraint=eastwest;fontSize=12;whiteSpace=wrap;html=1;" vertex="1" parent="1">
          <mxGeometry x="383" y="331" width="40" height="30" as="geometry" />
        </mxCell>
      </root>
    </mxGraphModel>
  </diagram>
</mxfile>
